# xmcd CD database file
#
# Track frame offsets:
#	150
#	18037
#	23600
#	45496
#	76504
#	109494
#	116453
#	156684
#	177488
#	215520
#	219799
#	254341
#	278660
#
# Disc length: 4387 seconds
#
# Revision: 0
# Processed by: cddbd v1.5.2PL0 Copyright (c) Steve Scherf et al.
# Submitted via: CDex 1.70beta2
#
DISCID=a511210d
DTITLE=Vinny Golia - Music For Like Instruments - The Clarinets
DYEAR=2005
DGENRE=Jazz
TTITLE0=Clown Car Syndrome
TTITLE1=The Fleming Valve
TTITLE2=Accumulation
TTITLE3=You Were The One Who Drew First
TTITLE4=Which One Is The Real Dr. Otto
TTITLE5=Hand As Tongue
TTITLE6=Monuments Of Broken Balloons And Burnt Promises
TTITLE7=Blugger!
TTITLE8=Played 2 Or 3 Times
TTITLE9=Why Is That Thing So Pointy
TTITLE10=Well Beneath The Sleeping Floor
TTITLE11=Five Solo Statements On The Disappearance Of Elfego Bacca
TTITLE12=Tricostomy
EXTD=YEAR: 2005
EXTT0=
EXTT1=
EXTT2=
EXTT3=
EXTT4=
EXTT5=
EXTT6=
EXTT7=
EXTT8=
EXTT9=
EXTT10=
EXTT11=
EXTT12=
PLAYORDER=
